<svg width="89" height="18" viewBox="0 0 89 18" fill="none" xmlns="http://www.w3.org/2000/svg">
<path d="M8.09375 1.5625L6.0625 5.71875L1.46875 6.375C0.65625 6.5 0.34375 7.5 0.9375 8.09375L4.21875 11.3125L3.4375 15.8438C3.3125 16.6562 4.1875 17.2812 4.90625 16.9062L9 14.75L13.0625 16.9062C13.7812 17.2812 14.6562 16.6562 14.5312 15.8438L13.75 11.3125L17.0312 8.09375C17.625 7.5 17.3125 6.5 16.5 6.375L11.9375 5.71875L9.875 1.5625C9.53125 0.84375 8.46875 0.8125 8.09375 1.5625Z" fill="#FEB104"/>
<path d="M26.0938 1.5625L24.0625 5.71875L19.4688 6.375C18.6562 6.5 18.3438 7.5 18.9375 8.09375L22.2188 11.3125L21.4375 15.8438C21.3125 16.6562 22.1875 17.2812 22.9062 16.9062L27 14.75L31.0625 16.9062C31.7812 17.2812 32.6562 16.6562 32.5312 15.8438L31.75 11.3125L35.0312 8.09375C35.625 7.5 35.3125 6.5 34.5 6.375L29.9375 5.71875L27.875 1.5625C27.5312 0.84375 26.4688 0.8125 26.0938 1.5625Z" fill="#FEB104"/>
<path d="M44.0938 1.5625L42.0625 5.71875L37.4688 6.375C36.6562 6.5 36.3438 7.5 36.9375 8.09375L40.2188 11.3125L39.4375 15.8438C39.3125 16.6562 40.1875 17.2812 40.9062 16.9062L45 14.75L49.0625 16.9062C49.7812 17.2812 50.6562 16.6562 50.5312 15.8438L49.75 11.3125L53.0312 8.09375C53.625 7.5 53.3125 6.5 52.5 6.375L47.9375 5.71875L45.875 1.5625C45.5312 0.84375 44.4688 0.8125 44.0938 1.5625Z" fill="#FEB104"/>
<path fill-rule="evenodd" clip-rule="evenodd" d="M65.3079 5.70709L69.8704 6.36334C70.6829 6.48834 70.9954 7.48834 70.4016 8.08209L67.1204 11.3008L67.9016 15.8321C68.0266 16.6446 67.1516 17.2696 66.4329 16.8946L62.3704 14.7383L58.2766 16.8946C57.5579 17.2696 56.6829 16.6446 56.8079 15.8321L57.5891 11.3008L54.3079 8.08209C53.7141 7.48834 54.0266 6.48834 54.8391 6.36334L59.4329 5.70709L61.4641 1.55084C61.8391 0.800844 62.9016 0.832094 63.2454 1.55084L65.3079 5.70709ZM66.2454 15.0821L65.4954 10.7696L68.6516 7.70709L64.3079 7.08209L62.5 3.40799V8.5V13.1188L66.2454 15.0821Z" fill="#FEB104"/>
<path d="M69.8704 6.36334L69.8856 6.2645L69.8846 6.26436L69.8704 6.36334ZM65.3079 5.70709L65.2183 5.75155L65.2417 5.7986L65.2937 5.80608L65.3079 5.70709ZM70.4016 8.08209L70.4717 8.15348L70.4723 8.1528L70.4016 8.08209ZM67.1204 11.3008L67.0504 11.2295L67.0129 11.2662L67.0218 11.3178L67.1204 11.3008ZM67.9016 15.8321L68.0005 15.8169L68.0002 15.8151L67.9016 15.8321ZM66.4329 16.8946L66.386 16.9829L66.3866 16.9833L66.4329 16.8946ZM62.3704 14.7383L62.4173 14.65L62.3706 14.6252L62.3238 14.6499L62.3704 14.7383ZM58.2766 16.8946L58.3229 16.9833L58.3232 16.9831L58.2766 16.8946ZM56.8079 15.8321L56.7093 15.8151L56.7091 15.8169L56.8079 15.8321ZM57.5891 11.3008L57.6877 11.3178L57.6966 11.2662L57.6592 11.2295L57.5891 11.3008ZM54.3079 8.08209L54.2372 8.15281L54.2379 8.15348L54.3079 8.08209ZM54.8391 6.36334L54.825 6.26434L54.8239 6.26451L54.8391 6.36334ZM59.4329 5.70709L59.447 5.80609L59.4995 5.7986L59.5227 5.751L59.4329 5.70709ZM61.4641 1.55084L61.3747 1.50612L61.3743 1.50693L61.4641 1.55084ZM63.2454 1.55084L63.1552 1.59399L63.1558 1.5953L63.2454 1.55084ZM65.4954 10.7696L65.4258 10.6978L65.3878 10.7346L65.3969 10.7867L65.4954 10.7696ZM66.2454 15.0821L66.199 15.1707L66.3787 15.2649L66.3439 15.065L66.2454 15.0821ZM68.6516 7.70709L68.7213 7.77886L68.8674 7.6371L68.6659 7.60811L68.6516 7.70709ZM64.3079 7.08209L64.2182 7.12624L64.2414 7.17356L64.2936 7.18107L64.3079 7.08209ZM62.5 3.40799L62.5897 3.36384L62.4 3.40799H62.5ZM62.5 13.1188H62.4V13.1793L62.4536 13.2074L62.5 13.1188ZM69.8846 6.26436L65.3221 5.60811L65.2937 5.80608L69.8562 6.46233L69.8846 6.26436ZM70.4723 8.1528C71.1208 7.50437 70.7835 6.40265 69.8856 6.26451L69.8552 6.46218C70.5822 6.57404 70.87 7.47232 70.3309 8.01138L70.4723 8.1528ZM67.1904 11.3722L70.4717 8.15348L70.3316 8.01071L67.0504 11.2295L67.1904 11.3722ZM68.0002 15.8151L67.2189 11.2839L67.0218 11.3178L67.8031 15.8491L68.0002 15.8151ZM66.3866 16.9833C67.1788 17.3965 68.1378 16.7096 68.0005 15.8169L67.8028 15.8473C67.9155 16.5796 67.1245 17.1427 66.4791 16.8059L66.3866 16.9833ZM62.3235 14.8267L66.386 16.9829L66.4798 16.8063L62.4173 14.65L62.3235 14.8267ZM58.3232 16.9831L62.417 14.8268L62.3238 14.6499L58.23 16.8061L58.3232 16.9831ZM56.7091 15.8169C56.5717 16.7096 57.5308 17.3965 58.3229 16.9833L58.2304 16.8059C57.585 17.1427 56.7941 16.5796 56.9067 15.8473L56.7091 15.8169ZM57.4906 11.2839L56.7093 15.8151L56.9064 15.8491L57.6877 11.3178L57.4906 11.2839ZM54.2379 8.15348L57.5191 11.3722L57.6592 11.2295L54.3779 8.01071L54.2379 8.15348ZM54.8239 6.26451C53.926 6.40265 53.5887 7.50437 54.2372 8.1528L54.3786 8.01138C53.8395 7.47232 54.1273 6.57404 54.8543 6.46218L54.8239 6.26451ZM59.4187 5.6081L54.825 6.26435L54.8533 6.46234L59.447 5.80609L59.4187 5.6081ZM61.3743 1.50693L59.343 5.66318L59.5227 5.751L61.554 1.59475L61.3743 1.50693ZM63.3356 1.5077C62.9562 0.714485 61.7872 0.681091 61.3747 1.50612L61.5536 1.59556C61.8911 0.920596 62.847 0.949703 63.1552 1.59399L63.3356 1.5077ZM65.3975 5.66264L63.335 1.50639L63.1558 1.5953L65.2183 5.75155L65.3975 5.66264ZM65.3969 10.7867L66.1469 15.0992L66.3439 15.065L65.5939 10.7525L65.3969 10.7867ZM68.582 7.63533L65.4258 10.6978L65.565 10.8414L68.7213 7.77886L68.582 7.63533ZM64.2936 7.18107L68.6374 7.80607L68.6659 7.60811L64.3221 6.98311L64.2936 7.18107ZM62.4103 3.45214L64.2182 7.12624L64.3976 7.03794L62.5897 3.36384L62.4103 3.45214ZM62.6 8.5V3.40799H62.4V8.5H62.6ZM62.6 13.1188V8.5H62.4V13.1188H62.6ZM66.2918 14.9935L62.5464 13.0302L62.4536 13.2074L66.199 15.1707L66.2918 14.9935Z" fill="#FEB104"/>
<path d="M87.2095 6.375L82.647 5.71875L80.5845 1.5625C80.2408 0.84375 79.1783 0.8125 78.8033 1.5625L76.772 5.71875L72.1783 6.375C71.3658 6.5 71.0533 7.5 71.647 8.09375L74.9283 11.3125L74.147 15.8438C74.022 16.6562 74.897 17.2812 75.6158 16.9062L79.7095 14.75L83.772 16.9062C84.4908 17.2812 85.3658 16.6562 85.2408 15.8438L84.4595 11.3125L87.7408 8.09375C88.3345 7.5 88.022 6.5 87.2095 6.375ZM82.8345 10.7812L83.5845 15.0938L79.7095 13.0625L75.8033 15.0938L76.5533 10.7812L73.397 7.71875L77.7408 7.09375L79.7095 3.15625L81.647 7.09375L85.9908 7.71875L82.8345 10.7812Z" fill="#FEB104"/>
</svg>
