<svg width="90" height="18" viewBox="0 0 90 18" fill="none" xmlns="http://www.w3.org/2000/svg">
<path d="M8.09375 1.5625L6.0625 5.71875L1.46875 6.375C0.65625 6.5 0.34375 7.5 0.9375 8.09375L4.21875 11.3125L3.4375 15.8438C3.3125 16.6562 4.1875 17.2812 4.90625 16.9062L9 14.75L13.0625 16.9062C13.7812 17.2812 14.6562 16.6562 14.5312 15.8438L13.75 11.3125L17.0312 8.09375C17.625 7.5 17.3125 6.5 16.5 6.375L11.9375 5.71875L9.875 1.5625C9.53125 0.84375 8.46875 0.8125 8.09375 1.5625Z" fill="#FEB104"/>
<path d="M26.0938 1.5625L24.0625 5.71875L19.4688 6.375C18.6562 6.5 18.3438 7.5 18.9375 8.09375L22.2188 11.3125L21.4375 15.8438C21.3125 16.6562 22.1875 17.2812 22.9062 16.9062L27 14.75L31.0625 16.9062C31.7812 17.2812 32.6562 16.6562 32.5312 15.8438L31.75 11.3125L35.0312 8.09375C35.625 7.5 35.3125 6.5 34.5 6.375L29.9375 5.71875L27.875 1.5625C27.5312 0.84375 26.4688 0.8125 26.0938 1.5625Z" fill="#FEB104"/>
<path d="M44.0938 1.5625L42.0625 5.71875L37.4688 6.375C36.6562 6.5 36.3438 7.5 36.9375 8.09375L40.2188 11.3125L39.4375 15.8438C39.3125 16.6562 40.1875 17.2812 40.9062 16.9062L45 14.75L49.0625 16.9062C49.7812 17.2812 50.6562 16.6562 50.5312 15.8438L49.75 11.3125L53.0312 8.09375C53.625 7.5 53.3125 6.5 52.5 6.375L47.9375 5.71875L45.875 1.5625C45.5312 0.84375 44.4688 0.8125 44.0938 1.5625Z" fill="#FEB104"/>
<path d="M62.0938 1.5625L60.0625 5.71875L55.4688 6.375C54.6562 6.5 54.3438 7.5 54.9375 8.09375L58.2188 11.3125L57.4375 15.8438C57.3125 16.6562 58.1875 17.2812 58.9062 16.9062L63 14.75L67.0625 16.9062C67.7812 17.2812 68.6562 16.6562 68.5312 15.8438L67.75 11.3125L71.0312 8.09375C71.625 7.5 71.3125 6.5 70.5 6.375L65.9375 5.71875L63.875 1.5625C63.5312 0.84375 62.4688 0.8125 62.0938 1.5625Z" fill="#FEB104"/>
<path d="M88.5 6.375L83.9375 5.71875L81.875 1.5625C81.5312 0.84375 80.4688 0.8125 80.0938 1.5625L78.0625 5.71875L73.4688 6.375C72.6562 6.5 72.3438 7.5 72.9375 8.09375L76.2188 11.3125L75.4375 15.8438C75.3125 16.6562 76.1875 17.2812 76.9062 16.9062L81 14.75L85.0625 16.9062C85.7812 17.2812 86.6562 16.6562 86.5312 15.8438L85.75 11.3125L89.0312 8.09375C89.625 7.5 89.3125 6.5 88.5 6.375ZM84.125 10.7812L84.875 15.0938L81 13.0625L77.0938 15.0938L77.8438 10.7812L74.6875 7.71875L79.0312 7.09375L81 3.15625L82.9375 7.09375L87.2812 7.71875L84.125 10.7812Z" fill="#FEB104"/>
</svg>
