<svg width="89" height="18" viewBox="0 0 89 18" fill="none" xmlns="http://www.w3.org/2000/svg">
<path d="M8.09375 1.5625L6.0625 5.71875L1.46875 6.375C0.65625 6.5 0.34375 7.5 0.9375 8.09375L4.21875 11.3125L3.4375 15.8438C3.3125 16.6562 4.1875 17.2812 4.90625 16.9062L9 14.75L13.0625 16.9062C13.7812 17.2812 14.6562 16.6562 14.5312 15.8438L13.75 11.3125L17.0312 8.09375C17.625 7.5 17.3125 6.5 16.5 6.375L11.9375 5.71875L9.875 1.5625C9.53125 0.84375 8.46875 0.8125 8.09375 1.5625Z" fill="#FEB104"/>
<path d="M26.0938 1.5625L24.0625 5.71875L19.4688 6.375C18.6562 6.5 18.3438 7.5 18.9375 8.09375L22.2188 11.3125L21.4375 15.8438C21.3125 16.6562 22.1875 17.2812 22.9062 16.9062L27 14.75L31.0625 16.9062C31.7812 17.2812 32.6562 16.6562 32.5312 15.8438L31.75 11.3125L35.0312 8.09375C35.625 7.5 35.3125 6.5 34.5 6.375L29.9375 5.71875L27.875 1.5625C27.5312 0.84375 26.4688 0.8125 26.0938 1.5625Z" fill="#FEB104"/>
<path d="M44.0938 1.5625L42.0625 5.71875L37.4688 6.375C36.6562 6.5 36.3438 7.5 36.9375 8.09375L40.2188 11.3125L39.4375 15.8438C39.3125 16.6562 40.1875 17.2812 40.9062 16.9062L45 14.75L49.0625 16.9062C49.7812 17.2812 50.6562 16.6562 50.5312 15.8438L49.75 11.3125L53.0312 8.09375C53.625 7.5 53.3125 6.5 52.5 6.375L47.9375 5.71875L45.875 1.5625C45.5312 0.84375 44.4688 0.8125 44.0938 1.5625Z" fill="#FEB104"/>
<path d="M62.0938 1.5625L60.0625 5.71875L55.4688 6.375C54.6562 6.5 54.3438 7.5 54.9375 8.09375L58.2188 11.3125L57.4375 15.8438C57.3125 16.6562 58.1875 17.2812 58.9062 16.9062L63 14.75L67.0625 16.9062C67.7812 17.2812 68.6562 16.6562 68.5312 15.8438L67.75 11.3125L71.0312 8.09375C71.625 7.5 71.3125 6.5 70.5 6.375L65.9375 5.71875L63.875 1.5625C63.5312 0.84375 62.4688 0.8125 62.0938 1.5625Z" fill="#FEB104"/>
<path fill-rule="evenodd" clip-rule="evenodd" d="M83.3079 5.70709L87.8704 6.36334C88.6829 6.48834 88.9954 7.48834 88.4016 8.08209L85.1204 11.3008L85.9016 15.8321C86.0266 16.6446 85.1516 17.2696 84.4329 16.8946L80.3704 14.7383L76.2766 16.8946C75.5579 17.2696 74.6829 16.6446 74.8079 15.8321L75.5891 11.3008L72.3079 8.08209C71.7141 7.48834 72.0266 6.48834 72.8391 6.36334L77.4329 5.70709L79.4641 1.55084C79.8391 0.800844 80.9016 0.832094 81.2454 1.55084L83.3079 5.70709ZM84.2454 15.0821L83.4954 10.7696L86.6516 7.70709L82.3079 7.08209L80.5 3.40799V8.5V13.1188L84.2454 15.0821Z" fill="#FEB104"/>
<path d="M87.8704 6.36334L87.8856 6.2645L87.8846 6.26436L87.8704 6.36334ZM83.3079 5.70709L83.2183 5.75155L83.2417 5.7986L83.2937 5.80608L83.3079 5.70709ZM88.4016 8.08209L88.4717 8.15348L88.4723 8.1528L88.4016 8.08209ZM85.1204 11.3008L85.0504 11.2295L85.0129 11.2662L85.0218 11.3178L85.1204 11.3008ZM85.9016 15.8321L86.0005 15.8169L86.0002 15.8151L85.9016 15.8321ZM84.4329 16.8946L84.386 16.9829L84.3866 16.9833L84.4329 16.8946ZM80.3704 14.7383L80.4173 14.65L80.3706 14.6252L80.3238 14.6499L80.3704 14.7383ZM76.2766 16.8946L76.3229 16.9833L76.3232 16.9831L76.2766 16.8946ZM74.8079 15.8321L74.7093 15.8151L74.7091 15.8169L74.8079 15.8321ZM75.5891 11.3008L75.6877 11.3178L75.6966 11.2662L75.6592 11.2295L75.5891 11.3008ZM72.3079 8.08209L72.2372 8.15281L72.2379 8.15348L72.3079 8.08209ZM72.8391 6.36334L72.825 6.26434L72.8239 6.26451L72.8391 6.36334ZM77.4329 5.70709L77.447 5.80609L77.4995 5.7986L77.5227 5.751L77.4329 5.70709ZM79.4641 1.55084L79.3747 1.50612L79.3743 1.50693L79.4641 1.55084ZM81.2454 1.55084L81.1552 1.59399L81.1558 1.5953L81.2454 1.55084ZM83.4954 10.7696L83.4258 10.6978L83.3878 10.7346L83.3969 10.7867L83.4954 10.7696ZM84.2454 15.0821L84.199 15.1707L84.3787 15.2649L84.3439 15.065L84.2454 15.0821ZM86.6516 7.70709L86.7213 7.77886L86.8674 7.6371L86.6659 7.60811L86.6516 7.70709ZM82.3079 7.08209L82.2182 7.12624L82.2414 7.17356L82.2936 7.18107L82.3079 7.08209ZM80.5 3.40799L80.5897 3.36384L80.4 3.40799H80.5ZM80.5 13.1188H80.4V13.1793L80.4536 13.2074L80.5 13.1188ZM87.8846 6.26436L83.3221 5.60811L83.2937 5.80608L87.8562 6.46233L87.8846 6.26436ZM88.4723 8.1528C89.1208 7.50437 88.7835 6.40265 87.8856 6.26451L87.8552 6.46218C88.5822 6.57404 88.87 7.47232 88.3309 8.01138L88.4723 8.1528ZM85.1904 11.3722L88.4717 8.15348L88.3316 8.01071L85.0504 11.2295L85.1904 11.3722ZM86.0002 15.8151L85.2189 11.2839L85.0218 11.3178L85.8031 15.8491L86.0002 15.8151ZM84.3866 16.9833C85.1788 17.3965 86.1378 16.7096 86.0005 15.8169L85.8028 15.8473C85.9155 16.5796 85.1245 17.1427 84.4791 16.8059L84.3866 16.9833ZM80.3235 14.8267L84.386 16.9829L84.4798 16.8063L80.4173 14.65L80.3235 14.8267ZM76.3232 16.9831L80.417 14.8268L80.3238 14.6499L76.23 16.8061L76.3232 16.9831ZM74.7091 15.8169C74.5717 16.7096 75.5308 17.3965 76.3229 16.9833L76.2304 16.8059C75.585 17.1427 74.7941 16.5796 74.9067 15.8473L74.7091 15.8169ZM75.4906 11.2839L74.7093 15.8151L74.9064 15.8491L75.6877 11.3178L75.4906 11.2839ZM72.2379 8.15348L75.5191 11.3722L75.6592 11.2295L72.3779 8.01071L72.2379 8.15348ZM72.8239 6.26451C71.926 6.40265 71.5887 7.50437 72.2372 8.1528L72.3786 8.01138C71.8395 7.47232 72.1273 6.57404 72.8543 6.46218L72.8239 6.26451ZM77.4187 5.6081L72.825 6.26435L72.8533 6.46234L77.447 5.80609L77.4187 5.6081ZM79.3743 1.50693L77.343 5.66318L77.5227 5.751L79.554 1.59475L79.3743 1.50693ZM81.3356 1.5077C80.9562 0.714485 79.7872 0.681091 79.3747 1.50612L79.5536 1.59556C79.8911 0.920596 80.847 0.949703 81.1552 1.59399L81.3356 1.5077ZM83.3975 5.66264L81.335 1.50639L81.1558 1.5953L83.2183 5.75155L83.3975 5.66264ZM83.3969 10.7867L84.1469 15.0992L84.3439 15.065L83.5939 10.7525L83.3969 10.7867ZM86.582 7.63533L83.4258 10.6978L83.565 10.8414L86.7213 7.77886L86.582 7.63533ZM82.2936 7.18107L86.6374 7.80607L86.6659 7.60811L82.3221 6.98311L82.2936 7.18107ZM80.4103 3.45214L82.2182 7.12624L82.3976 7.03794L80.5897 3.36384L80.4103 3.45214ZM80.6 8.5V3.40799H80.4V8.5H80.6ZM80.6 13.1188V8.5H80.4V13.1188H80.6ZM84.2918 14.9935L80.5464 13.0302L80.4536 13.2074L84.199 15.1707L84.2918 14.9935Z" fill="#FEB104"/>
</svg>
