<svg width="89" height="18" viewBox="0 0 89 18" fill="none" xmlns="http://www.w3.org/2000/svg">
<path d="M8.09375 1.5625L6.0625 5.71875L1.46875 6.375C0.65625 6.5 0.34375 7.5 0.9375 8.09375L4.21875 11.3125L3.4375 15.8438C3.3125 16.6562 4.1875 17.2812 4.90625 16.9062L9 14.75L13.0625 16.9062C13.7812 17.2812 14.6562 16.6562 14.5312 15.8438L13.75 11.3125L17.0312 8.09375C17.625 7.5 17.3125 6.5 16.5 6.375L11.9375 5.71875L9.875 1.5625C9.53125 0.84375 8.46875 0.8125 8.09375 1.5625Z" fill="#FEB104"/>
<path d="M26.0938 1.5625L24.0625 5.71875L19.4688 6.375C18.6562 6.5 18.3438 7.5 18.9375 8.09375L22.2188 11.3125L21.4375 15.8438C21.3125 16.6562 22.1875 17.2812 22.9062 16.9062L27 14.75L31.0625 16.9062C31.7812 17.2812 32.6562 16.6562 32.5312 15.8438L31.75 11.3125L35.0312 8.09375C35.625 7.5 35.3125 6.5 34.5 6.375L29.9375 5.71875L27.875 1.5625C27.5312 0.84375 26.4688 0.8125 26.0938 1.5625Z" fill="#FEB104"/>
<path fill-rule="evenodd" clip-rule="evenodd" d="M47.3079 5.70709L51.8704 6.36334C52.6829 6.48834 52.9954 7.48834 52.4016 8.08209L49.1204 11.3008L49.9016 15.8321C50.0266 16.6446 49.1516 17.2696 48.4329 16.8946L44.3704 14.7383L40.2766 16.8946C39.5579 17.2696 38.6829 16.6446 38.8079 15.8321L39.5891 11.3008L36.3079 8.08209C35.7141 7.48834 36.0266 6.48834 36.8391 6.36334L41.4329 5.70709L43.4641 1.55084C43.8391 0.800844 44.9016 0.832094 45.2454 1.55084L47.3079 5.70709ZM48.2454 15.0821L47.4954 10.7696L50.6516 7.70709L46.3079 7.08209L44.5 3.40799V8.5V13.1188L48.2454 15.0821Z" fill="#FEB104"/>
<path d="M51.8704 6.36334L51.8856 6.2645L51.8846 6.26436L51.8704 6.36334ZM47.3079 5.70709L47.2183 5.75155L47.2417 5.7986L47.2937 5.80608L47.3079 5.70709ZM52.4016 8.08209L52.4717 8.15348L52.4723 8.1528L52.4016 8.08209ZM49.1204 11.3008L49.0504 11.2295L49.0129 11.2662L49.0218 11.3178L49.1204 11.3008ZM49.9016 15.8321L50.0005 15.8169L50.0002 15.8151L49.9016 15.8321ZM48.4329 16.8946L48.386 16.9829L48.3866 16.9833L48.4329 16.8946ZM44.3704 14.7383L44.4173 14.65L44.3706 14.6252L44.3238 14.6499L44.3704 14.7383ZM40.2766 16.8946L40.3229 16.9833L40.3232 16.9831L40.2766 16.8946ZM38.8079 15.8321L38.7093 15.8151L38.7091 15.8169L38.8079 15.8321ZM39.5891 11.3008L39.6877 11.3178L39.6966 11.2662L39.6592 11.2295L39.5891 11.3008ZM36.3079 8.08209L36.2372 8.15281L36.2379 8.15348L36.3079 8.08209ZM36.8391 6.36334L36.825 6.26434L36.8239 6.26451L36.8391 6.36334ZM41.4329 5.70709L41.447 5.80609L41.4995 5.7986L41.5227 5.751L41.4329 5.70709ZM43.4641 1.55084L43.3747 1.50612L43.3743 1.50693L43.4641 1.55084ZM45.2454 1.55084L45.1552 1.59399L45.1558 1.5953L45.2454 1.55084ZM47.4954 10.7696L47.4258 10.6978L47.3878 10.7346L47.3969 10.7867L47.4954 10.7696ZM48.2454 15.0821L48.199 15.1707L48.3787 15.2649L48.3439 15.065L48.2454 15.0821ZM50.6516 7.70709L50.7213 7.77886L50.8674 7.6371L50.6659 7.60811L50.6516 7.70709ZM46.3079 7.08209L46.2182 7.12624L46.2414 7.17356L46.2936 7.18107L46.3079 7.08209ZM44.5 3.40799L44.5897 3.36384L44.4 3.40799H44.5ZM44.5 13.1188H44.4V13.1793L44.4536 13.2074L44.5 13.1188ZM51.8846 6.26436L47.3221 5.60811L47.2937 5.80608L51.8562 6.46233L51.8846 6.26436ZM52.4723 8.1528C53.1208 7.50437 52.7835 6.40265 51.8856 6.26451L51.8552 6.46218C52.5822 6.57404 52.87 7.47232 52.3309 8.01138L52.4723 8.1528ZM49.1904 11.3722L52.4717 8.15348L52.3316 8.01071L49.0504 11.2295L49.1904 11.3722ZM50.0002 15.8151L49.2189 11.2839L49.0218 11.3178L49.8031 15.8491L50.0002 15.8151ZM48.3866 16.9833C49.1788 17.3965 50.1378 16.7096 50.0005 15.8169L49.8028 15.8473C49.9155 16.5796 49.1245 17.1427 48.4791 16.8059L48.3866 16.9833ZM44.3235 14.8267L48.386 16.9829L48.4798 16.8063L44.4173 14.65L44.3235 14.8267ZM40.3232 16.9831L44.417 14.8268L44.3238 14.6499L40.23 16.8061L40.3232 16.9831ZM38.7091 15.8169C38.5717 16.7096 39.5308 17.3965 40.3229 16.9833L40.2304 16.8059C39.585 17.1427 38.7941 16.5796 38.9067 15.8473L38.7091 15.8169ZM39.4906 11.2839L38.7093 15.8151L38.9064 15.8491L39.6877 11.3178L39.4906 11.2839ZM36.2379 8.15348L39.5191 11.3722L39.6592 11.2295L36.3779 8.01071L36.2379 8.15348ZM36.8239 6.26451C35.926 6.40265 35.5887 7.50437 36.2372 8.1528L36.3786 8.01138C35.8395 7.47232 36.1273 6.57404 36.8543 6.46218L36.8239 6.26451ZM41.4187 5.6081L36.825 6.26435L36.8533 6.46234L41.447 5.80609L41.4187 5.6081ZM43.3743 1.50693L41.343 5.66318L41.5227 5.751L43.554 1.59475L43.3743 1.50693ZM45.3356 1.5077C44.9562 0.714485 43.7872 0.681091 43.3747 1.50612L43.5536 1.59556C43.8911 0.920596 44.847 0.949703 45.1552 1.59399L45.3356 1.5077ZM47.3975 5.66264L45.335 1.50639L45.1558 1.5953L47.2183 5.75155L47.3975 5.66264ZM47.3969 10.7867L48.1469 15.0992L48.3439 15.065L47.5939 10.7525L47.3969 10.7867ZM50.582 7.63533L47.4258 10.6978L47.565 10.8414L50.7213 7.77886L50.582 7.63533ZM46.2936 7.18107L50.6374 7.80607L50.6659 7.60811L46.3221 6.98311L46.2936 7.18107ZM44.4103 3.45214L46.2182 7.12624L46.3976 7.03794L44.5897 3.36384L44.4103 3.45214ZM44.6 8.5V3.40799H44.4V8.5H44.6ZM44.6 13.1188V8.5H44.4V13.1188H44.6ZM48.2918 14.9935L44.5464 13.0302L44.4536 13.2074L48.199 15.1707L48.2918 14.9935Z" fill="#FEB104"/>
<path d="M69.2095 6.375L64.647 5.71875L62.5845 1.5625C62.2408 0.84375 61.1783 0.8125 60.8033 1.5625L58.772 5.71875L54.1783 6.375C53.3658 6.5 53.0533 7.5 53.647 8.09375L56.9283 11.3125L56.147 15.8438C56.022 16.6562 56.897 17.2812 57.6158 16.9062L61.7095 14.75L65.772 16.9062C66.4908 17.2812 67.3658 16.6562 67.2408 15.8438L66.4595 11.3125L69.7408 8.09375C70.3345 7.5 70.022 6.5 69.2095 6.375ZM64.8345 10.7812L65.5845 15.0938L61.7095 13.0625L57.8033 15.0938L58.5533 10.7812L55.397 7.71875L59.7408 7.09375L61.7095 3.15625L63.647 7.09375L67.9908 7.71875L64.8345 10.7812Z" fill="#FEB104"/>
<path d="M87.2095 6.375L82.647 5.71875L80.5845 1.5625C80.2408 0.84375 79.1783 0.8125 78.8033 1.5625L76.772 5.71875L72.1783 6.375C71.3658 6.5 71.0533 7.5 71.647 8.09375L74.9283 11.3125L74.147 15.8438C74.022 16.6562 74.897 17.2812 75.6158 16.9062L79.7095 14.75L83.772 16.9062C84.4908 17.2812 85.3658 16.6562 85.2408 15.8438L84.4595 11.3125L87.7408 8.09375C88.3345 7.5 88.022 6.5 87.2095 6.375ZM82.8345 10.7812L83.5845 15.0938L79.7095 13.0625L75.8033 15.0938L76.5533 10.7812L73.397 7.71875L77.7408 7.09375L79.7095 3.15625L81.647 7.09375L85.9908 7.71875L82.8345 10.7812Z" fill="#FEB104"/>
</svg>
